<svg xmlns="http://www.w3.org/2000/svg" xmlns:xlink="http://www.w3.org/1999/xlink" width="188" height="123" viewBox="0 0 188 123">
    <defs>
        <path id="a" d="M22.642.08H.286v22.093h22.356V.081z"/>
        <path id="c" d="M0 123h188V0H0z"/>
    </defs>
    <g fill="none" fill-rule="evenodd" stroke="none">
        <path fill="#081420" d="M106.274 10.348c.945 0 1.686-.243 2.222-.732.536-.488.805-1.15.805-1.988v-.06c0-.896-.269-1.58-.805-2.048-.536-.468-1.286-.703-2.249-.703h-2.48v5.531h2.507zM98.476 0h8.18c1.2 0 2.29.164 3.272.49.981.328 1.817.804 2.508 1.428a6.237 6.237 0 0 1 1.595 2.305c.373.911.56 1.943.56 3.093v.059c0 1.23-.205 2.31-.614 3.24a6.564 6.564 0 0 1-1.704 2.35c-.727.635-1.595 1.11-2.604 1.428-1.009.317-2.104.475-3.285.475h-2.618v5.947h-5.29V0z"/>
        <g transform="translate(116.381)">
            <mask id="b" fill="#fff">
                <use xlink:href="#a"/>
            </mask>
            <path fill="#081420" d="M13.648 13.556L11.421 7.32l-2.256 6.236h4.483zM8.795.08h5.338l8.509 22.092h-5.939l-1.456-3.917h-7.71L6.11 22.173H.286L8.795.081z" mask="url(#b)"/>
        </g>
        <path fill="#081420" d="M143.238 0h5.405l8.599 11.002V0h5.691v20.815h-5.076L148.93 9.397v11.418h-5.69zM102.81 42.901h-6.124v-5.055h17.904v5.055h-6.123v15.76h-5.657zM118.171 37.846h5.999v7.791h7.698v-7.79h5.999v20.815h-5.999v-7.91h-7.698v7.91h-5.999zM141.448 37.846h15.972v4.907h-10.544v3.152h9.549v4.55h-9.549v3.3h10.686v4.907h-16.114zM170.99 47.838c1.02 0 1.804-.223 2.355-.67.55-.445.826-1.045.826-1.798v-.06c0-.832-.286-1.452-.856-1.859-.571-.406-1.356-.61-2.355-.61h-3.884v4.997h3.914zm-9.847-9.992h10.122c1.652 0 3.048.199 4.19.595 1.142.397 2.07.951 2.783 1.665 1.264 1.19 1.896 2.806 1.896 4.848v.059c0 1.605-.397 2.934-1.193 3.985-.795 1.05-1.865 1.854-3.21 2.408l5.107 7.256h-6.85l-4.313-6.305h-2.599v6.305h-5.933V37.846zM101.067 95.592a12.51 12.51 0 0 1-4.381-2.745l3.164-4.054c2.051 1.755 4.268 2.634 6.652 2.634.763 0 1.343-.13 1.744-.392.4-.26.6-.632.6-1.112 0-.29-.049-.495-.146-.672-.098-.178-.278-.35-.542-.517-.264-.167-.615-.328-1.055-.485-.44-.157-1.011-.319-1.714-.486a35.322 35.322 0 0 1-3.048-.89c-.938-.325-1.753-.742-2.447-1.254a5.546 5.546 0 0 1-1.64-1.91c-.402-.761-.601-1.706-.601-2.833 0-1.085.18-2.024.542-2.88a6.22 6.22 0 0 1 1.582-2.223c.693-.626 1.529-1.112 2.505-1.456.977-.344 2.08-.517 3.312-.517 1.758 0 3.326.248 4.703.742a11.665 11.665 0 0 1 3.736 2.193l-2.842 4.31c-.938-.71-1.9-1.249-2.887-1.615-.986-.366-1.939-.548-2.856-.548-.685 0-1.197.135-1.54.407-.34.272-.512.605-.512 1 0 .314.054.534.161.721.108.188.293.36.557.517.263.157.625.313 1.084.47.46.157 1.04.318 1.744.485 1.172.272 2.232.59 3.18.955.946.365 1.752.808 2.417 1.33a5.24 5.24 0 0 1 1.524 1.894c.351.742.527 1.624.527 2.645 0 1.19-.2 2.193-.6 3.069a6.4 6.4 0 0 1-1.686 2.239c-.723.615-1.592 1.085-2.607 1.408-1.016.323-2.15.486-3.4.486-1.837 0-3.58-.306-5.23-.916zM123.88 95.903c-1.208-.404-2.234-1.024-3.08-1.864-.847-.838-1.496-1.9-1.949-3.185-.453-1.284-.68-2.797-.68-4.538V73.8h5.982v12.389c0 1.614.349 2.808 1.048 3.583.7.775 1.64 1.162 2.818 1.162 1.18 0 2.118-.371 2.818-1.114.699-.744 1.049-1.9 1.049-3.472V73.8h5.98v12.356c0 1.805-.236 3.361-.709 4.666-.474 1.307-1.138 2.379-1.994 3.217-.856.84-1.892 1.46-3.111 1.864-1.219.403-2.583.605-4.093.605-1.51 0-2.87-.202-4.078-.605z"/>
        <mask id="d" fill="#fff">
            <use xlink:href="#c"/>
        </mask>
        <path fill="#081420" d="M141.448 94.615h5.371V73.8h-5.371zM156.524 78.855H150.4V73.8h17.905v5.055h-6.124v15.76h-5.657zM171.886 73.8h15.972v4.906h-10.544v3.153h9.549v4.55h-9.549v3.3H188v4.906h-16.114zM62.667 39.302s1.289 4.221 7.09 4.221c0 0 1.29-9.145-7.09-4.22" mask="url(#d)"/>
        <path fill="#081420" d="M82.036 2.113L74.03 4.308l-12.983 3.56-13.49 3.7-9.526 2.612c-2.268.621-4.691.717-6.487 2.524-1.482 1.492-2.047 3.56-2.13 5.67-.003.04-.009.227-.018.561v57.876c-3.177 2.63-7.793 3.485-11.259 3.725a15.583 15.583 0 0 0-1.514.07c-1.12.094-2.208.3-3.261.6C5.672 87.407 0 94.87 0 103.767 0 114.387 8.076 123 18.038 123c6.267 0 11.783-3.41 15.017-8.583 1.906-3.05 3.022-6.711 3.022-10.652V62.7c0-6.67 1.083-13.502 3.383-19.778.358-.978 2.155-4.334 1.432-5.288-1.17-1.543-1.651-3.92-1.278-6.497.306-2.114 1.069-3.55 1.557-4.089l5.542 2.877c.597.31 1.598 1.615 1.648 1.69 3.592 1.05 6.724.996 6.724.996l7.85-.652c3.692-.306 7.269 1.528 9.348 4.787a50.787 50.787 0 0 1 1.514 2.513c.458.828 1.233 1.387 2.106 1.541 1.29.474 4.944 2.437 6.94 3.713v10.602c-1.195 3.69-4.465 6.353-8.312 6.353h-6.502c-1.45 0-2.694 1.1-2.966 2.62l-1.63 9.15c-.032.186-.042.37-.044.553-5.89 3.162-9.942 9.638-9.942 17.15 0 10.624 8.076 19.236 18.038 19.236 6.267 0 11.783-3.411 15.017-8.584 1.907-3.05 3.022-6.71 3.022-10.651V9.016c0-3.918-3.007-7.124-6.681-7.124l-.807.221z" mask="url(#d)"/>
    </g>
</svg>
