<svg xmlns="http://www.w3.org/2000/svg" xmlns:xlink="http://www.w3.org/1999/xlink" width="24" height="24" viewBox="0 0 24 24">
    <defs>
        <path id="a" d="M0 0h24v24H0z"/>
    </defs>
    <g fill="none" fill-rule="evenodd">
        <g>
            <mask id="b" fill="#fff">
                <use xlink:href="#a"/>
            </mask>
            <path fill="#FFF" d="M22.061 17.515a4.55 4.55 0 0 1-4.546 4.546H6.485a4.55 4.55 0 0 1-4.546-4.546V6.485a4.55 4.55 0 0 1 4.546-4.546h11.03a4.55 4.55 0 0 1 4.546 4.546v11.03zM17.515 0H6.485A6.492 6.492 0 0 0 0 6.485v11.03A6.492 6.492 0 0 0 6.485 24h11.03A6.492 6.492 0 0 0 24 17.515V6.485A6.492 6.492 0 0 0 17.515 0z" mask="url(#b)"/>
        </g>
        <path fill="#FFF" d="M12.553 15.358a3.42 3.42 0 0 1-2.556-.64 3.42 3.42 0 0 1-1.355-2.26 3.42 3.42 0 0 1 .64-2.557 3.42 3.42 0 0 1 2.766-1.391 3.423 3.423 0 0 1 3.406 2.938 3.447 3.447 0 0 1-2.901 3.91m3.3-7.211a5.378 5.378 0 0 0-4.595-1.518 5.346 5.346 0 0 0-3.533 2.117 5.346 5.346 0 0 0-1 3.996 5.347 5.347 0 0 0 2.117 3.533 5.341 5.341 0 0 0 3.995 1 5.346 5.346 0 0 0 3.533-2.117 5.346 5.346 0 0 0 1.001-3.995 5.344 5.344 0 0 0-1.518-3.016M18.067 4.964a.976.976 0 0 0-.686.284.976.976 0 0 0-.284.685c0 .256.104.505.284.686.18.18.43.284.686.284a.976.976 0 0 0 .685-.284c.18-.18.284-.43.284-.686a.976.976 0 0 0-.284-.685.976.976 0 0 0-.685-.284"/>
    </g>
</svg>
