<svg xmlns="http://www.w3.org/2000/svg" xmlns:xlink="http://www.w3.org/1999/xlink" width="218" height="53" viewBox="0 0 218 53">
    <defs>
        <path id="a" d="M0 53h218V0H0z"/>
    </defs>
    <g fill="none" fill-rule="evenodd">
        <path fill="#FFF" d="M54.807 24.457c.704 0 1.255-.175 1.655-.528.4-.351.599-.829.599-1.432v-.044c0-.646-.2-1.138-.599-1.475-.4-.338-.957-.507-1.675-.507h-1.848v3.986h1.868zM49 17h6.091c.894 0 1.706.118 2.437.353.731.237 1.353.58 1.868 1.029.514.45.91 1.004 1.187 1.66.278.658.417 1.4.417 2.23v.042c0 .886-.152 1.665-.457 2.336a4.76 4.76 0 0 1-1.269 1.693c-.541.457-1.188.8-1.939 1.028a8.355 8.355 0 0 1-2.446.343h-1.95V32H49V17zM70.563 26.149l-1.593-4.234-1.615 4.234h3.208zM67.09 17h3.82L77 32h-4.25l-1.042-2.66H66.19L65.169 32H61l6.09-15zM80 17h3.568l5.676 7.928V17H93v15h-3.35l-5.893-8.228V32H80zM100.104 20.643H96V17h12v3.643h-4.104V32h-3.792zM110 17h3.959v5.614h5.082V17H123v15h-3.96v-5.7h-5.081V32H110zM126 17h10.903v3.536h-7.197v2.271h6.518v3.279h-6.518v2.378H137V32h-11zM146.5 24.2c.673 0 1.19-.16 1.554-.482.364-.321.545-.753.545-1.296v-.044c0-.6-.188-1.046-.565-1.339-.377-.292-.895-.439-1.554-.439h-2.564v3.6h2.584zM140 17h6.681c1.09 0 2.013.143 2.766.428.754.287 1.366.686 1.837 1.201.834.857 1.252 2.022 1.252 3.493v.042c0 1.157-.263 2.115-.788 2.872-.524.757-1.231 1.336-2.12 1.735L153 32h-4.522l-2.846-4.543h-1.716V32H140V17zM161.442 32c-1.231 0-2.4-.202-3.506-.605A8.41 8.41 0 0 1 155 29.582l2.121-2.678c1.375 1.16 2.86 1.74 4.459 1.74.51 0 .9-.087 1.168-.259a.824.824 0 0 0 .403-.734v-.041a.81.81 0 0 0-.099-.404c-.065-.117-.186-.23-.363-.34a3.663 3.663 0 0 0-.707-.321c-.295-.104-.678-.21-1.149-.322a23.95 23.95 0 0 1-2.043-.588 6.118 6.118 0 0 1-1.64-.827 3.675 3.675 0 0 1-1.1-1.262c-.268-.503-.402-1.127-.402-1.872v-.041c0-.676.121-1.296.363-1.861a4.106 4.106 0 0 1 1.061-1.469 4.915 4.915 0 0 1 1.68-.961c.654-.228 1.394-.342 2.218-.342 1.179 0 2.23.164 3.153.49.923.327 1.758.81 2.504 1.449l-1.905 2.847a7.614 7.614 0 0 0-1.935-1.067 5.568 5.568 0 0 0-1.914-.362c-.46 0-.803.09-1.032.269-.229.18-.344.4-.344.661v.042c0 .165.036.31.108.434a.991.991 0 0 0 .374.341c.176.104.419.207.726.31.308.104.698.211 1.17.32.785.18 1.495.39 2.13.632.635.241 1.175.534 1.62.879.445.344.786.761 1.021 1.25.236.49.354 1.073.354 1.748v.042c0 .744-.134 1.406-.403 1.985a4.234 4.234 0 0 1-1.129 1.479c-.484.407-1.067.717-1.748.93-.68.214-1.44.321-2.278.321M175.46 32c-.997 0-1.894-.133-2.692-.4a5.152 5.152 0 0 1-2.033-1.23c-.558-.554-.987-1.256-1.286-2.105-.3-.848-.449-1.847-.449-2.998V17h3.948v8.184c0 1.066.23 1.855.692 2.366.462.513 1.082.768 1.86.768s1.398-.245 1.86-.736c.461-.49.692-1.255.692-2.293V17H182v8.162c0 1.193-.156 2.22-.469 3.083-.312.862-.75 1.57-1.315 2.124a5.23 5.23 0 0 1-2.054 1.231c-.804.267-1.705.4-2.702.4"/>
        <mask id="b" fill="#fff">
            <use xlink:href="#a"/>
        </mask>
        <path fill="#FFF" d="M185 32h4V17h-4zM195.104 20.643H191V17h12v3.643h-4.104V32h-3.792zM207 17h10.903v3.536h-7.197v2.271h6.518v3.279h-6.518v2.378H218V32h-11zM29 16.513S29.54 18 31.97 18c0 0 .54-3.222-2.97-1.487" mask="url(#b)"/>
        <path fill="#FFF" d="M39.791 0l-.387.097-3.846.96-6.236 1.558-6.48 1.62-4.575 1.143c-1.09.272-2.253.313-3.116 1.104-.712.653-.983 1.559-1.023 2.48-.002.028-.009.052-.009.08v25.494c-1.526 1.152-3.743 1.526-5.407 1.631l-.048-.002c-.229 0-.455.016-.68.033-.538.04-1.06.13-1.566.262C2.723 37.423 0 40.69 0 44.583 0 49.23 3.88 53 8.664 53c3.01 0 5.66-1.493 7.213-3.756a8.209 8.209 0 0 0 1.451-4.661V26.61c0-2.919.52-5.908 1.625-8.655.172-.428 1.036-1.897.688-2.314-.562-.676-.793-1.716-.614-2.844.147-.925.513-1.554.748-1.789l2.662 1.259c.287.135.768.708.791.74 1.726.46 3.23.435 3.23.435l3.77-.285c1.774-.134 3.492.669 4.49 2.095.438.623.726 1.096.728 1.1.22.362.593.607 1.012.674l.028.01c.591.198 2.346 1.057 3.305 1.615v4.64c-.574 1.616-2.145 2.78-3.993 2.78h-3.123c-.696 0-1.294.481-1.424 1.146l-.783 4.005c-.015.081-.02.162-.021.242-2.83 1.383-4.775 4.218-4.775 7.506 0 4.648 3.879 8.417 8.664 8.417 3.01 0 5.66-1.493 7.212-3.756A8.205 8.205 0 0 0 43 38.97V3.119C43 1.402 41.556 0 39.791 0" mask="url(#b)"/>
    </g>
</svg>
